<?xml version="1.0" encoding="UTF-8"?>
<svg version="1.1" xmlns="http://www.w3.org/2000/svg" width="250" height="250">
<path d="M0 0 C82.5 0 165 0 250 0 C250 82.5 250 165 250 250 C167.5 250 85 250 0 250 C0 167.5 0 85 0 0 Z " fill="#D6D6D6" transform="translate(0,0)"/>
<path d="M0 0 C5.28 0 10.56 0 16 0 C16 33.99 16 67.98 16 103 C25.75744067 96.54648851 25.75744067 96.54648851 30.39872742 87.18452454 C30.425211 85.55849608 30.43515095 83.93214995 30.43237305 82.3059082 C30.4425647 81.4178952 30.45275635 80.5298822 30.46325684 79.61495972 C30.49347521 76.67683679 30.50266627 73.7390394 30.51171875 70.80078125 C30.52855888 68.76481536 30.54670821 66.7288599 30.56611633 64.69291687 C30.61369476 59.33193219 30.6434534 53.97098982 30.66955566 48.60986328 C30.69932163 43.14021444 30.74586554 37.67071153 30.79101562 32.20117188 C30.87713797 21.46752413 30.94444352 10.73384641 31 0 C32.77007714 -0.08114106 34.54122098 -0.13925505 36.3125 -0.1875 C37.29863281 -0.22230469 38.28476563 -0.25710938 39.30078125 -0.29296875 C42 0 42 0 43.83418274 1.05439758 C45.61061341 4.019037 45.39225944 6.96351724 45.34057617 10.31713867 C45.34123329 11.42970284 45.34123329 11.42970284 45.34190369 12.56474304 C45.33981383 15.01608616 45.31647419 17.46674513 45.29296875 19.91796875 C45.28737348 21.61761603 45.28310306 23.31726815 45.28010559 25.016922 C45.26865134 29.49031941 45.23917927 33.96342459 45.20599365 38.43670654 C45.17530521 43.00138394 45.16160288 47.56610855 45.14648438 52.13085938 C45.11431005 61.08736797 45.06310675 70.04365969 45 79 C46.92389809 77.7264731 48.8466015 76.45114131 50.76879883 75.17504883 C51.83963211 74.46504227 52.91046539 73.75503571 54.01374817 73.02351379 C63.82810322 66.37320968 71.99067676 58.57155485 79 49 C79.48984375 48.34773438 79.9796875 47.69546875 80.484375 47.0234375 C84.08361431 41.80231875 85.96777222 35.93702768 87.984375 29.9765625 C89 27 89 27 90 25 C94.95 25.33 99.9 25.66 105 26 C103.125 35.625 103.125 35.625 102 39 C101.34 39 100.68 39 100 39 C99.8453125 40.53720703 99.8453125 40.53720703 99.6875 42.10546875 C96.35248357 60.99757886 77.55571795 75.06965773 63.04296875 85.71484375 C58.85392372 88.86066062 54.86759417 92.22568261 50.86328125 95.6015625 C48.29260279 97.75490026 45.69161927 99.85629088 43.0625 101.9375 C29.67773853 112.57485889 29.67773853 112.57485889 18 125 C17.52691406 125.51304687 17.05382812 126.02609375 16.56640625 126.5546875 C8.4930008 135.35010482 2.52339749 146.02168129 -2 157 C-2.49628906 158.11246094 -2.99257813 159.22492188 -3.50390625 160.37109375 C-4.97165166 163.93123862 -6.07058151 167.40630962 -7.0625 171.125 C-7.38347656 172.30320313 -7.70445313 173.48140625 -8.03515625 174.6953125 C-10.5283839 185.07211837 -11.48243203 195.78004753 -12.5625 206.375 C-14.07269022 221.01222826 -14.07269022 221.01222826 -15 227 C-19.62 227 -24.24 227 -29 227 C-29 152.42 -29 77.84 -29 1 C-24.38 1 -19.76 1 -15 1 C-15 48.52 -15 96.04 -15 145 C-14.34 145 -13.68 145 -13 145 C-12.77416229 144.31993393 -12.54832458 143.63986786 -12.31564331 142.93919373 C-11 140 -11 140 -8.65921021 136.79725647 C1.01889935 123.53227902 0.38327979 110.32818191 0.1953125 94.43359375 C0.19355711 91.70014681 0.20682161 88.96682573 0.21969604 86.2334137 C0.24144081 79.81965819 0.21300415 73.40719373 0.165573 66.99361712 C0.11400185 59.68010097 0.11983895 52.36696137 0.12999368 45.05331123 C0.14958597 30.03508849 0.0966898 15.01795776 0 0 Z " fill="#0E0B08" transform="translate(59,11)"/>
<path d="M0 0 C0.99 0 1.98 0 3 0 C3.6690216 22.57328437 -0.40564221 44.67039224 -8 66 C-8.66 66 -9.32 66 -10 66 C-10.08121094 66.66773437 -10.16242188 67.33546875 -10.24609375 68.0234375 C-11.24224058 71.95641101 -13.04923549 75.12392346 -15.0625 78.625 C-15.46879639 79.33575684 -15.87509277 80.04651367 -16.29370117 80.77880859 C-20.63749591 88.26133989 -25.45897757 95.16305028 -31.203125 101.64453125 C-31.75766357 102.27343262 -32.31220215 102.90233398 -32.88354492 103.55029297 C-33.98537656 104.78879211 -35.09983633 106.01619413 -36.2277832 107.23095703 C-37.95155276 109.09790342 -37.95155276 109.09790342 -40 112 C-39.52253545 116.24537098 -37.12590584 118.20705688 -34.1875 121.1875 C-7.8912109 148.86918008 3.04430434 185.82934323 3.1328125 223.4453125 C3 226 3 226 2 227 C-0.35313555 227.07271741 -2.70833668 227.08370868 -5.0625 227.0625 C-6.35285156 227.05347656 -7.64320313 227.04445312 -8.97265625 227.03515625 C-10.47119141 227.01775391 -10.47119141 227.01775391 -12 227 C-12.06993164 226.2157666 -12.13986328 225.4315332 -12.21191406 224.62353516 C-13.79377539 206.03842527 -13.79377539 206.03842527 -17 187.6875 C-17.1537207 187.00961426 -17.30744141 186.33172852 -17.46582031 185.63330078 C-18.98673257 179.39693074 -21.25609143 173.44814479 -23.9375 167.625 C-24.99088932 165.32169351 -25.98160477 163.05188843 -26.828125 160.6640625 C-30.69002374 149.81563786 -37.9973817 140.97877613 -45.3125 132.25 C-45.81587891 131.64124023 -46.31925781 131.03248047 -46.83789062 130.40527344 C-50.22029371 126.45880169 -50.22029371 126.45880169 -55 125 C-57.45105884 126.40797932 -57.45105884 126.40797932 -59.75 128.4375 C-60.54921875 129.09621094 -61.3484375 129.75492188 -62.171875 130.43359375 C-62.77515625 130.95050781 -63.3784375 131.46742188 -64 132 C-62.46704712 135.70957657 -60.2165048 137.894435 -57.3125 140.625 C-46.01713752 151.69118121 -46.01713752 151.69118121 -44.50390625 158.1015625 C-44.15200141 160.08882298 -44.15200141 160.08882298 -42.58740234 161.35986328 C-40.79961872 163.20703806 -40.05873272 164.76493036 -39.09765625 167.140625 C-38.76644775 167.95708496 -38.43523926 168.77354492 -38.09399414 169.61474609 C-37.58340454 170.91919678 -37.58340454 170.91919678 -37.0625 172.25 C-36.70986084 173.14154785 -36.35722168 174.0330957 -35.99389648 174.95166016 C-33.06746617 182.50884349 -30.73065962 190.08003225 -29 198 C-28.70609375 199.32257813 -28.70609375 199.32257813 -28.40625 200.671875 C-27.78801565 205.73664104 -27.89670254 210.77845564 -27.9375 215.875 C-27.94201172 216.94492188 -27.94652344 218.01484375 -27.95117188 219.1171875 C-27.96290236 221.74481589 -27.98083609 224.37241531 -28 227 C-32.95 227 -37.9 227 -43 227 C-43.16435547 224.98712891 -43.16435547 224.98712891 -43.33203125 222.93359375 C-44.75824192 206.27391126 -47.72185251 190.86928174 -53 175 C-53.31839844 173.87722656 -53.63679688 172.75445312 -53.96484375 171.59765625 C-54.30644531 170.74042969 -54.64804688 169.88320312 -55 169 C-55.99 168.67 -56.98 168.34 -58 168 C-58.72112977 166.35616482 -59.37999674 164.6845825 -60 163 C-64.09184691 156.22080498 -69.74715444 146.87893387 -77.51171875 144.1015625 C-80.03023533 143.76485209 -80.03023533 143.76485209 -81.94921875 145.21484375 C-82.80966797 146.06755859 -82.80966797 146.06755859 -83.6875 146.9375 C-86.83371298 150 -86.83371298 150 -89 150 C-87.96324279 152.63901835 -87.05085636 153.95931491 -84.8125 155.75 C-78.01927731 161.18457815 -71.77823683 168.66528951 -69 177 C-68.5359375 177.433125 -68.071875 177.86625 -67.59375 178.3125 C-58.58226225 187.85407526 -57.83772238 208.71503516 -57.8125 221.1875 C-57.9053125 224.0646875 -57.9053125 224.0646875 -58 227 C-62.95 227 -67.9 227 -73 227 C-73.08636719 225.5253125 -73.17273438 224.050625 -73.26171875 222.53125 C-74.79568746 199.63170207 -79.73973875 183.89050393 -96 167 C-96.50015625 166.4121875 -97.0003125 165.824375 -97.515625 165.21875 C-99.19514512 163.57695606 -99.19514512 163.57695606 -103 164 C-103.2475 164.70125 -103.495 165.4025 -103.75 166.125 C-105 169 -105 169 -106.9375 171.6875 C-109.57227804 175.91911322 -110.74948948 180.20637634 -112 185 C-112.66 185 -113.32 185 -114 185 C-116.4565804 194.26226117 -117.61094235 203.19457548 -118.125 212.75 C-118.26952867 215.24502117 -118.41774926 217.73983223 -118.5703125 220.234375 C-118.62977051 221.31944336 -118.68922852 222.40451172 -118.75048828 223.52246094 C-119 226 -119 226 -120 227 C-122.35313555 227.07271741 -124.70833668 227.08370868 -127.0625 227.0625 C-128.35285156 227.05347656 -129.64320313 227.04445312 -130.97265625 227.03515625 C-132.47119141 227.01775391 -132.47119141 227.01775391 -134 227 C-134.43129182 216.06196012 -134.09328461 205.61400104 -132.1875 194.8125 C-132.02217773 193.87011475 -131.85685547 192.92772949 -131.68652344 191.95678711 C-130.60626139 186.22844839 -129.44607065 180.32461708 -127 175 C-126.34 174.67 -125.68 174.34 -125 174 C-124.608125 172.88625 -124.21625 171.7725 -123.8125 170.625 C-118.54809367 155.95799729 -106.97673325 145.32728773 -95 136 C-93.85718378 135.0922641 -92.71529225 134.18336311 -91.57421875 133.2734375 C-86.23175401 129.02661835 -80.85863742 124.85461073 -75.3125 120.875 C-70.52482247 117.43606349 -65.9542558 113.78438001 -61.42578125 110.01171875 C-59.6104913 108.50628506 -57.75259425 107.05197163 -55.875 105.625 C-52.28950206 102.35128449 -49.36229637 98.70911899 -46.34375 94.9140625 C-44.61969656 92.77048939 -42.86830988 90.70875126 -41.05078125 88.6484375 C-24.69685813 69.61286443 -14.99530914 43.24926473 -13.87866211 18.28759766 C-13.54545876 11.6443943 -13.54545876 11.6443943 -10.56640625 8.125 C-9.07947266 7.073125 -9.07947266 7.073125 -7.5625 6 C-6.07943359 4.9171875 -6.07943359 4.9171875 -4.56640625 3.8125 C-3.71949219 3.214375 -2.87257812 2.61625 -2 2 C-1.34 1.34 -0.68 0.68 0 0 Z " fill="#100D0B" transform="translate(224,12)"/>
<path d="M0 0 C-1.20089993 17.32727037 -6.45013531 33.87331632 -15 49 C-15.66 49 -16.32 49 -17 49 C-17.26039063 49.72058594 -17.52078125 50.44117188 -17.7890625 51.18359375 C-24.98853218 67.92816677 -41.83632168 79.54548036 -56 90 C-61.34447604 93.98511756 -66.6763047 97.98717195 -72 102 C-72.92425781 102.69480469 -73.84851563 103.38960938 -74.80078125 104.10546875 C-87.02047997 113.55770779 -98.58469708 124.92522519 -105.078125 139.13671875 C-106.03989186 141.08062889 -107.18785649 142.72967169 -108.4375 144.5 C-112.00549053 150.11465994 -113.64133852 156.51385069 -115.40478516 162.86767578 C-115.78769238 164.2394197 -116.18228932 165.60798229 -116.59130859 166.97216797 C-120.62068806 180.45915954 -120.78512877 194.00113954 -121 208 C-126.28 208 -131.56 208 -137 208 C-137.0916281 198.92881858 -136.84020011 190.03215123 -136 181 C-135.34 181 -134.68 181 -134 181 C-134.0309375 179.55947266 -134.0309375 179.55947266 -134.0625 178.08984375 C-133.92294048 151.95326597 -120.37561983 126.51682472 -102.4375 108.0625 C-98.35409533 104.17882708 -94.00565667 100.6312581 -89.609375 97.109375 C-87.41115937 95.33237434 -85.29035423 93.51217687 -83.1875 91.625 C-77.35648684 86.4709069 -71.1386423 81.77840218 -65 77 C-60.3196976 73.35035607 -55.65361358 69.68361484 -51 66 C-50.30132812 65.45988281 -49.60265625 64.91976562 -48.8828125 64.36328125 C-40.98009503 58.00833102 -35.01738307 49.64153081 -30.19140625 40.80078125 C-29.79824219 40.20652344 -29.40507812 39.61226562 -29 39 C-28.34 39 -27.68 39 -27 39 C-25.25472409 33.94788551 -23.64788339 28.87230148 -22.1550293 23.74072266 C-21.71697052 22.24221225 -21.27176644 20.74577285 -20.81958008 19.25146484 C-19.89369096 16.17970757 -19.03673636 13.20448108 -18.46875 10.04296875 C-17.96362257 7.50470344 -17.62597279 6.02301265 -16 4 C-10.92503435 1.56935856 -5.64771659 0 0 0 Z " fill="#100D0B" transform="translate(196,31)"/>
<path d="M0 0 C0.99 0 1.98 0 3 0 C3.36758529 12.40260013 2.61097143 23.86209114 0 36 C-1.38799456 32.14445956 -0.57517706 28.99450554 0 25 C0.12453616 21.35327159 0.09491846 17.71082342 0.0625 14.0625 C0.05798828 13.09248047 0.05347656 12.12246094 0.04882812 11.12304688 C0.0371315 8.7486324 0.02074086 6.37434979 0 4 C-1.32 4.33 -2.64 4.66 -4 5 C-2.1875 2.5 -2.1875 2.5 0 0 Z " fill="#5B5A59" transform="translate(224,12)"/>
<path d="M0 0 C0.33 0.66 0.66 1.32 1 2 C-0.25 4.5625 -0.25 4.5625 -2 7 C-2.99 7.33 -3.98 7.66 -5 8 C-5.144375 8.61875 -5.28875 9.2375 -5.4375 9.875 C-6.1872454 12.7073715 -7.59730651 13.44987517 -10 15 C-10.66 14.67 -11.32 14.34 -12 14 C-11.30132812 13.24074219 -10.60265625 12.48148438 -9.8828125 11.69921875 C-8.96343578 10.69540947 -8.04417079 9.69149785 -7.125 8.6875 C-6.66480469 8.18798828 -6.20460937 7.68847656 -5.73046875 7.17382812 C-3.61393392 4.85790957 -1.74473617 2.61710426 0 0 Z " fill="#A9A8A6" transform="translate(199,105)"/>
<path d="M0 0 C0.66 0.33 1.32 0.66 2 1 C0.42687016 2.8223088 -1.15736799 4.63236793 -2.75 6.4375 C-3.41515625 7.2119043 -3.41515625 7.2119043 -4.09375 8.00195312 C-6.52915356 10.74178213 -8.24061317 12.65743905 -12 13 C-8.19524578 8.43969176 -4.25030379 4.14910608 0 0 Z " fill="#B4B3B2" transform="translate(117,137)"/>
<path d="M0 0 C0.33 0.99 0.66 1.98 1 3 C0.01 4.485 0.01 4.485 -1 6 C-1.66 6 -2.32 6 -3 6 C-3.2475 6.598125 -3.495 7.19625 -3.75 7.8125 C-5.16370012 10.28647521 -6.65055383 11.43370255 -9 13 C-9.66 12.67 -10.32 12.34 -11 12 C-10.54109375 11.55269531 -10.0821875 11.10539062 -9.609375 10.64453125 C-6.16447701 7.25029352 -2.92744915 3.86423288 0 0 Z " fill="#B3B3B1" transform="translate(173,90)"/>
<path d="M0 0 C0.66 0.99 1.32 1.98 2 3 C1.69964844 3.56332031 1.39929688 4.12664063 1.08984375 4.70703125 C-0.34909085 7.73446713 -1.19988569 10.85788662 -2.12109375 14.07421875 C-2.41113281 14.70972656 -2.70117188 15.34523438 -3 16 C-3.99 16.33 -4.98 16.66 -6 17 C-4.33846988 11.14340094 -2.52958084 5.5409866 0 0 Z " fill="#474544" transform="translate(148,38)"/>
<path d="M0 0 C0.33 0.99 0.66 1.98 1 3 C0.05125 3.7425 -0.8975 4.485 -1.875 5.25 C-4.32532401 7.27845219 -5.87325363 8.9577848 -7 12 C-7.66 12 -8.32 12 -9 12 C-7.54718935 6.67302761 -3.91888622 3.63597198 0 0 Z " fill="#ADABA9" transform="translate(79,133)"/>
<path d="M0 0 C-2.64 1.98 -5.28 3.96 -8 6 C-8.33 4.35 -8.66 2.7 -9 1 C-5.19495213 -0.79682816 -4.29399165 -1.07349791 0 0 Z " fill="#201D1C" transform="translate(159,106)"/>
<path d="M0 0 C0.33 0.99 0.66 1.98 1 3 C-3.10526316 8.70175439 -3.10526316 8.70175439 -7 10 C-5.33248852 6.05860922 -2.77289351 3.2107188 0 0 Z " fill="#3A3836" transform="translate(186,97)"/>
<path d="M0 0 C0 3 0 3 -1.53125 4.60546875 C-2.1809375 5.12753906 -2.830625 5.64960938 -3.5 6.1875 C-4.1496875 6.71730469 -4.799375 7.24710938 -5.46875 7.79296875 C-5.9740625 8.19128906 -6.479375 8.58960938 -7 9 C-7.66 8.67 -8.32 8.34 -9 8 C-6.03 5.36 -3.06 2.72 0 0 Z " fill="#34312F" transform="translate(102,132)"/>
<path d="M0 0 C0.66 0.33 1.32 0.66 2 1 C-1.12621626 4.39417765 -3.56541027 6.6062718 -8 8 C-5.58443874 4.80800833 -3.31996462 2.25283313 0 0 Z " fill="#3B3A37" transform="translate(128,110)"/>
<path d="M0 0 C0.33 0.99 0.66 1.98 1 3 C-2.08306962 8.70938819 -2.08306962 8.70938819 -5.14453125 9.6796875 C-5.75683594 9.78539063 -6.36914062 9.89109375 -7 10 C-6.57847656 9.44570312 -6.15695313 8.89140625 -5.72265625 8.3203125 C-5.17480469 7.59585938 -4.62695312 6.87140625 -4.0625 6.125 C-3.51722656 5.40570313 -2.97195312 4.68640625 -2.41015625 3.9453125 C-0.96035376 2.05642921 -0.96035376 2.05642921 0 0 Z " fill="#343232" transform="translate(163,77)"/>
<path d="M0 0 C-0.33 2.31 -0.66 4.62 -1 7 C-1.33 7 -1.66 7 -2 7 C-2 5.35 -2 3.7 -2 2 C-4.31 2.33 -6.62 2.66 -9 3 C-5.73209435 0.82139623 -3.91954654 0 0 0 Z " fill="#656563" transform="translate(196,31)"/>
<path d="M0 0 C0.66 1.32 1.32 2.64 2 4 C1.34 4 0.68 4 0 4 C-0.33 4.99 -0.66 5.98 -1 7 C-1.99 7.33 -2.98 7.66 -4 8 C-2.87548273 5.0280615 -1.77706209 2.66559313 0 0 Z " fill="#383635" transform="translate(80,156)"/>
<path d="M0 0 C0.66 0.33 1.32 0.66 2 1 C0.875 3.4375 0.875 3.4375 -1 6 C-4.1875 6.8125 -4.1875 6.8125 -7 7 C-4.66666667 4.66666667 -2.33333333 2.33333333 0 0 Z " fill="#B1B0B0" transform="translate(150,112)"/>
<path d="M0 0 C1 2 1 2 0.25 4.5625 C-1 7 -1 7 -4 8 C-2.87548273 5.0280615 -1.77706209 2.66559313 0 0 Z " fill="#3C3B39" transform="translate(56,138)"/>
<path d="M0 0 C0.66 0.33 1.32 0.66 2 1 C-0.52788007 3.79872437 -2.20411134 5.45773019 -6 6 C-4 4 -2 2 0 0 Z " fill="#A2A0A1" transform="translate(137,122)"/>
</svg>
